<?xml version="1.0" encoding="iso-8859-1"?>
<!-- Uploaded to: SVG Repo, www.svgrepo.com, Generator: SVG Repo Mixer Tools -->
<!DOCTYPE svg PUBLIC "-//W3C//DTD SVG 1.1//EN" "http://www.w3.org/Graphics/SVG/1.1/DTD/svg11.dtd">
<svg fill="red" version="1.1" id="Capa_1" xmlns="http://www.w3.org/2000/svg" xmlns:xlink="http://www.w3.org/1999/xlink" 
	 width="800px" height="800px" viewBox="0 0 557.379 557.379"
	 xml:space="preserve">
<g>
	<g>
		<path d="M289.146,477.341c-0.459-0.354-1.129-0.277-1.492,0.172c-0.363,0.469-0.287,1.139,0.172,1.492
			c3.558,2.821,5.595,7.038,5.595,11.561c0,8.129-6.599,14.736-14.727,14.736c-8.118,0-14.727-6.607-14.727-14.736
			c0-4.561,2.065-8.797,5.671-11.618c0.469-0.354,0.555-1.023,0.191-1.473c-0.363-0.469-1.033-0.564-1.492-0.191
			c-4.121,3.213-6.492,8.071-6.492,13.282c0,9.305,7.563,16.869,16.858,16.869s16.858-7.564,16.858-16.869
			C295.543,485.393,293.22,480.573,289.146,477.341z"/>
		<path d="M278.694,491.627c0.593,0,1.062-0.468,1.062-1.062v-15.777c0-0.593-0.479-1.062-1.062-1.062s-1.062,0.469-1.062,1.062
			v15.777C277.623,491.159,278.102,491.627,278.694,491.627z"/>
		<path d="M368.323,0H189.056c-29.223,0-62.529,34.722-62.529,65.159V492.22c0,30.447,33.306,65.159,62.529,65.159h179.259
			c29.223,0,62.538-34.722,62.538-65.159V65.159C430.862,34.722,397.537,0,368.323,0z M416.519,492.229
			c0,23.275-26.125,50.815-48.195,50.815H189.056c-22.07,0-48.186-27.55-48.186-50.815V65.159c0-23.275,26.115-50.815,48.186-50.815
			h179.259c22.07,0,48.194,27.55,48.194,50.815v427.07H416.519z"/>
		<path d="M278.694,458.866c-18.063,0-32.761,14.697-32.761,32.761s14.697,32.762,32.761,32.762s32.761-14.698,32.761-32.762
			C311.446,473.563,296.748,458.866,278.694,458.866z M278.694,519.607c-15.424,0-27.979-12.546-27.979-27.98
			c0-15.434,12.546-27.979,27.979-27.979s27.979,12.546,27.979,27.979C306.674,507.062,294.119,519.607,278.694,519.607z"/>
		<circle cx="233.014" cy="55.769" r="5.977"/>
		<circle cx="272.728" cy="55.769" r="5.977"/>
		<circle cx="312.421" cy="55.769" r="5.977"/>
		<path d="M319.268,105.121c-1.501,1.071-1.826,2.869-1.549,3.06c0.268,0.182,0.431,0.067,0.488-0.096
			c0.611-1.798,2.295-3.002,4.197-3.002c1.74,0,3.328,1.023,4.045,2.591c0.067,0.153,0.134,0.315,0.182,0.469
			c0.029,0.105,0.096,0.191,0.173,0.249c0.134,0.096,0.487,0.057,0.649-0.125c0.105-0.124,0.135-0.268,0.087-0.401
			c-0.067-0.201-0.144-0.392-0.221-0.583c-0.88-1.922-2.802-3.156-4.915-3.156C321.247,104.126,320.157,104.489,319.268,105.121z"/>
		<path d="M314.898,106.345c-0.096,0.239,0.019,0.526,0.248,0.631c0.229,0.096,0.535-0.019,0.622-0.258
			c1.128-2.668,3.738-4.39,6.626-4.39c2.582,0,4.973,1.387,6.235,3.625c0.153,0.239,0.277,0.507,0.392,0.784
			c0.039,0.086,0.096,0.153,0.173,0.201c0.124,0.086,0.401-0.258,0.439-0.698c0.028-0.382-0.067-0.574-0.172-0.774
			c-1.444-2.524-4.16-4.093-7.067-4.093C319.115,101.372,316.17,103.323,314.898,106.345z"/>
		<path d="M312.46,105.321c-0.105,0.239,0.009,0.526,0.248,0.631c0.239,0.096,0.526-0.039,0.631-0.258
			c1.53-3.644,5.098-6.015,9.056-6.015c3.807,0,7.307,2.218,8.922,5.68c0.077,0.182,0.153,0.315,0.221,0.401
			c0.143,0.21-0.335-2.859-3.146-5.04c-1.712-1.329-3.806-1.999-5.986-1.999C318.054,98.723,314.152,101.324,312.46,105.321z"/>
		<path d="M358.197,101.678c-0.173,0-0.249-0.498-0.526-0.976c-0.191-0.334-0.487-0.497-0.812-0.497h-11.141
			c-2.228,0-4.045,1.759-4.045,3.92c0,2.171,1.817,3.94,4.045,3.94h11.141c0.564,0,1.023-0.469,1.023-1.042c0,0,0-0.172,0-0.382
			s0.134-0.382,0.306-0.382h0.306c0.65,0,1.177-0.631,1.177-1.396v-1.778c0-0.765-0.526-1.396-1.177-1.396
			C358.503,101.678,358.369,101.678,358.197,101.678z M357.327,101.956v4.016v1.042c0,0.258-0.211,0.468-0.469,0.468h-11.141
			c-1.912,0-3.471-1.492-3.471-3.366c0-1.846,1.559-3.356,3.471-3.356h11.141c0.248,0,0.469,0.201,0.469,0.468V101.956z
			 M358.503,105.694c0,0-0.134,0-0.306,0c-0.173,0-0.307-0.774-0.307-1.731c0-0.956,0.134-1.73,0.307-1.73h0.306
			c0.335,0,0.612,0.373,0.612,0.841v1.779C359.125,105.321,358.838,105.694,358.503,105.694z"/>
		<path d="M343.997,102.309c-0.469,0.469-0.756,1.109-0.756,1.817c0,1.406,1.119,2.563,2.572,2.563c0,0,2.372,0,5.298,0
			s5.298-1.138,5.298-2.553c0-1.416-2.372-2.553-5.298-2.553C348.185,101.573,344.79,101.525,343.997,102.309z"/>
		<path d="M277.585,430.981h-81.243c-8.568,0-15.539-6.971-15.539-15.539V128.501c0-5.278,4.284-9.562,9.562-9.562h176.658
			c5.278,0,9.562,4.284,9.562,9.562V326.53c0,5.279,1.606,11.332,3.586,13.521c1.979,2.19,3.586-0.325,3.586-5.604v-223.81
			c0-12.537-10.185-22.711-22.711-22.711H196.342c-12.527,0-22.711,10.174-22.711,22.711v304.804
			c0,12.518,10.184,22.711,22.711,22.711h90.939c5.278,0,7.306-1.481,4.638-3.471C289.242,432.703,282.873,430.981,277.585,430.981z
			 M196.342,95.099h164.705c8.567,0,15.539,6.961,15.539,15.539c0,0,0,0.249,0,0.564c0,0.316-4.284,0.564-9.562,0.564H190.366
			c-5.279,0-9.562-0.249-9.562-0.564v-0.564C180.803,102.07,187.774,95.099,196.342,95.099z"/>
		<path d="M390.939,365.899l-25.504-28.143c-2.744-3.021-7.248-6.091-11.092-6.091c-0.65,0-1.272,0.076-1.827,0.258
			c0,0-0.344,0.115-0.774,0.249c-0.431,0.144-1.826-3.901-3.117-9.018l-6.551-25.953c-1.473-5.861-6.741-10.461-11.981-10.461
			c-5.336,0-10.165,4.973-10.777,11.073l-4.141,41.654c-0.525,5.26-5.201,10.538-8.826,14.104
			c-3.624,3.567-5.402,12.087-6.569,17.231l-1.214,5.384c-1.167,5.154-5.709,7.01-10.146,4.141l-12.546-8.1
			c-2.065-1.329-4.552-2.036-7.172-2.036c-3.69,0-7.21,1.396-9.658,3.844c-2.151,2.151-3.317,4.982-3.279,7.994
			c0.038,3.003,1.281,5.843,3.5,7.976c6.837,6.502,16.275,15.739,22.472,22.825c9.725,11.131,23.323,24.948,42.209,33.277
			c9.228,4.055,14.152,10.558,16.667,15.3c2.143,4.055,5.776,6.465,9.716,6.465c1.587,0,3.165-0.393,4.666-1.157l43.396-22.042
			c2.772-1.424,4.694-3.776,5.44-6.626c0.736-2.859,0.191-5.843-1.559-8.425l-0.383-0.583c-2.399-3.51-4.418-10.108-4.418-14.363
			v-31.862C397.461,377.384,394.602,369.944,390.939,365.899z M309.571,358.049c1.875-2.085,3.634,1.262,3.108,6.512l-1.941,19.527
			c-0.287,2.878-1.377,4.915-3.06,5.737c-0.938,0.449-2.075,0.516-3.309,0.21c-1.817-0.439-2.143-5.575-0.985-10.72
			c1.692-7.516,3.796-16.83,3.796-16.83C307.2,362.323,307.611,360.229,309.571,358.049z M398.608,436.72
			c-0.345,1.329-1.301,2.467-2.668,3.155l-43.386,22.061c-0.755,0.393-1.511,0.584-2.237,0.584c-2.812,0-4.494-2.764-4.943-3.605
			c-2.917-5.508-8.606-13.034-19.259-17.729c-17.911-7.88-30.954-21.182-40.325-31.882c-6.35-7.248-15.902-16.601-22.807-23.198
			c-1.167-1.1-1.817-2.563-1.836-4.131c-0.01-1.53,0.593-2.984,1.702-4.093c1.425-1.435,3.614-2.276,5.852-2.276
			c1.578,0,3.041,0.411,4.236,1.177l25.417,16.399c4.036,2.591,8.272,3.137,11.667,1.491c3.442-1.663,5.613-5.23,6.091-10.05
			l8.568-86.282c0.335-3.309,2.868-6.196,5.412-6.196c2.744,0,5.9,2.974,6.761,6.388l15.96,63.236c0,0,0.048,0.201,0.105,0.439
			c0.057,0.239,1.281,0.144,2.725-0.21c1.444-0.363,1.568-4.801,0.277-9.926l-1.301-5.135c-1.29-5.116-1.922-9.41-1.405-9.572
			c0.517-0.163,2.926-0.067,4.935,1.214c1.07,0.688,2.209,1.616,3.279,2.803l25.504,28.142c2.782,3.079,5.135,9.171,5.135,13.321
			v31.862c0,5.345,2.343,12.976,5.336,17.384l0.392,0.584C398.656,433.937,398.952,435.371,398.608,436.72z"/>
		<path d="M325.054,276.939c4.063-0.86,9.294-0.927,15.108,1.482c4.877,2.018,8.836,4.074,9.658,3.041s-1.798-4.714-6.599-6.914
			c-8.29-3.796-15.749-3.222-21.143-1.702c-5.087,1.435-8.022,4.81-7.229,5.862C315.644,279.761,319.88,278.03,325.054,276.939z"/>
		<path d="M241.267,383.169c1.32,0.039,2.659-4.341,5.049-9.056c1.884-3.71,5.088-7.821,10.558-10.844
			c4.618-2.562,8.692-4.36,8.405-5.651s-4.801-1.539-9.515,0.822c-8.138,4.084-12.355,10.261-14.545,15.415
			C239.153,378.723,239.947,383.131,241.267,383.169z"/>
	</g>
</g>
</svg>